<svg xmlns="http://www.w3.org/2000/svg" viewBox="0 0 219.712 204.081">
    <path d="M183.016 81.124l1.244-.912c.781-.573 11.36 2.794 13.378 2.898a34.6 34.6 0 0013.523-2.265 92.46 92.46 0 008.551-3.553l-2.816-5.24c-9.03 5.22-18.691 9.053-29.133 5.597.406-.082.24-.702-.02-1.023a39.069 39.069 0 00-8.063-7.564c-1.327-.91-8.887-3.08-9.022-3.36a30.382 30.382 0 00-14.832-14.898 7.908 7.908 0 015.294-3.384 44.99 44.99 0 019.893-.428c-.266-1.181.998-2.08 2.044-2.69 8.792-5.134 12.404-13.982 14.592-23.454l-4.931-.885a73.475 73.475 0 01-1.42 7.136 33.374 33.374 0 01-2.324 6.671 23.685 23.685 0 01-7.704 8.246c-3.853-.694-7.772.15-11.417 1.417-2.7.938-5.791 3.034-6.956 6.142.326-.87-16.514-3.172-17.678-3.525.345.114 4.177-1.822 4.98-2.04 6.835-1.856 17.39-2.546 17.416-12.047.025-9.067-7.565-17.247-15.097-21.282C130.63 4.312 117.73-1.112 103.898.196c-10.428.987-22.617 6.218-31.26 12.074C66.356 16.526 60 23.598 59.975 31.666c-.045 14.91 17.815 5.988 23.001 14.83-5.055 1.906-11.105 1.742-16.377 3.643a11.617 11.617 0 00-6.741-5.644 21.998 21.998 0 00-11.42-1.404 24.297 24.297 0 01-7.7-8.26 33.656 33.656 0 01-2.326-6.674A71.825 71.825 0 0137 21.021l-4.938.884a76.395 76.395 0 002.126 7.509c2.257 6.647 6.187 12.24 12.337 15.856 1.955 1.15 1.958 2.17 3.914 2.756 2.374.711 5.58-.151 8.153.454a8.273 8.273 0 014.949 2.89 32.372 32.372 0 00-16.185 15.537 15.79 15.79 0 00-5.876 2.25 41.758 41.758 0 00-10.054 9.163l.715.525a64.149 64.149 0 01-5.493.953 27.634 27.634 0 01-8.244.015 40.128 40.128 0 01-7.91-2.759 87.57 87.57 0 01-7.679-3.945L.001 78.351c-.1.185 11.283 4.61 12.312 4.883 7.865 2.083 15.598.626 23.136-1.965l1.248.914a36.623 36.623 0 017.55-8.916c.231-.196.473-.378.719-.554-2.18 6.534-3.384 14.654-3.433 24.76a132.27 132.27 0 008.356 47.118 15.074 15.074 0 00-4.583 6.497 41.983 41.983 0 00-2.45 13.384l.895-.016a63.76 63.76 0 01-3.795 4.083 27.477 27.477 0 01-6.55 5.012 40.28 40.28 0 01-7.969 2.599 88.68 88.68 0 01-8.499 1.513l.943 5.875c.209 1.237 10.398-3.27 11.179-3.618 5.266-2.35 9.815-4.352 13.653-8.784a68.302 68.302 0 005.137-6.755l1.549-.028a36.488 36.488 0 01.598-11.673 11.266 11.266 0 011.6-3.772c-1.248 1.856 7.456 15.294 8.625 17.283a115.67 115.67 0 0013.017 18.183c7.827 8.834 22.63 22.258 35.293 18.795a5.322 5.322 0 012.845.394c4.565 1.344 9.083-.153 13.296-1.933a65.906 65.906 0 0017.15-11.187c12.65-10.967 21.432-25.909 26.873-41.61a11.57 11.57 0 011.02 2.79c.873 3.884.731 7.603.612 11.549 1.517-.036 2.574 1.428 3.42 2.688 2.68 3.993 6.18 8.145 10.4 10.59 5.338 3.096 11.694 4.826 17.715 5.999l.956-5.825a71.467 71.467 0 01-12.632-2.633c-5.987-2.025-10.194-5.883-14.226-10.596l.893.016a41.803 41.803 0 00-2.45-13.38 15.296 15.296 0 00-4.115-6.124c3.984-13.246 6.328-28.77 6.156-46.717-.11-11.157-1.451-19.897-3.83-26.746a11.485 11.485 0 012.852 1.768 36.545 36.545 0 017.55 8.912z"/>
</svg>
