<svg xmlns="http://www.w3.org/2000/svg" viewBox="0 0 266.731 205.336">
    <path d="M266.29 16.43l-.014-.09c-2.47-16.197-15.757-21.968-57.855.344-52.37 27.762-69.313 63.924-74.795 84.03-4.889-19.629-21.155-57.32-75.316-86.03C16.212-7.628 2.925-1.857.455 14.34l-.014.09c-.933 6.241-.277 14.014.955 22.326l.067.45v-.001c.892 5.928 2.063 12.117 3.148 18.207.348 1.957.622 3.876.853 5.76h-.001l.062.514h.002c1.159 9.774 1.168 18.517 3.957 25.933l-.003.001.141.356c3.695 9.461 12.082 16.728 33.461 21.172h-.006c.082.018.169.034.251.051q.717.147 1.453.291l.148.03h.004c1.865.36 3.815.703 5.873 1.024-10.066 3.9-18.898 9.133-24.981 15.674h-.002l-.41.453c-8.234 9.124-11.145 20.744-4.722 34.794l.017.037c2.886 6.297 7.643 13.08 14.64 20.346 59.295 61.582 89.496-25.732 97.748-55.89 7.41 28.038 37.621 120.896 98.288 57.89 6.996-7.265 11.753-14.05 14.64-20.346l.016-.036c6.423-14.05 3.512-25.671-4.722-34.795-.138-.15-.273-.303-.41-.453h-.002c-6.083-6.54-14.915-11.775-24.981-15.674 2.058-.32 4.008-.664 5.873-1.025h.004l.148-.029q.736-.143 1.453-.29c.083-.018.169-.035.251-.051l-.006-.001c21.379-4.444 29.766-11.711 33.46-21.172l.142-.356h-.003c2.79-7.417 2.798-16.16 3.957-25.934h.002c.02-.17.043-.341.062-.514.23-1.884.504-3.803.852-5.76 1.085-6.09 2.256-12.279 3.147-18.207h.001l.067-.45c1.232-8.31 1.888-16.084.954-22.325z"/>
</svg>
