<svg xmlns="http://www.w3.org/2000/svg" viewBox="0 0 348.467 218.675">
    <path d="M282.64 179.32c-.107-.488.103.103 0 0-2.37-10.755-1.51-21.919 1.148-32.505-9.102 1.833-18.632 3.865-27.933 3.865.968 7.822-2.66 18.069-5.655 24.924-5.06 11.557-11.404 24.82-20.095 34.029-5.059 5.36-16.33 16.741-15.49 1.111.083-1.53.835-11.26.111-11.543-3.757-1.463.41-8.727-5.233-8.049.503-.06-.951-11.564-1.154-12.637-.917-4.84-.61-7.514-.61-12.084-7.148 0 8.544-15.286 10.568-17.586-1.287-1.37-5.821-1.117-7.621-1.81-3.581.303-8.822-1.807-12.25-2.96-6.424-2.158-14.053-3.007-20.005-6.363-3.663 8.777-1.03 19.14-5.54 27.68-2.513 4.759-4.442 8.96-8.158 12.675-3.821 0-6.463-4.41-7.448-7.681-3.335-11.053-17.46-11.596-22.223-20.865-4.55-8.855 7.648-19.987 13.696-24.755-5.96-2.904-11.507-6.574-17.226-9.901-8.498 16.308-18.734 32.164-28.851 47.508-6.16 9.343-12.111 18.69-18.754 27.709-5.521 7.498-13.143 18.276-21.928 21.802-9.405 1.685.317-16.62 1.941-20.267 4.55-10.216 5.73-21.537 6.782-32.55.854-8.939-.433-21.504 3.112-29.732 1.98-4.736-76.57-26.503-73.75-37.57.96-3.766 12.993-6.34 16.104-7.281 34.876-10.562 70.659-13.124 106.124-4.042 4.004 1.027 8.606 2.22 12.57 1.16 6.992-1.87 13.243-4.732 20.02-7.134-6.654-4.114-15.443-11.1-6.16-18.562 2.987-2.4 7.725-3.848 11.176-5.749 6.066-3.343 9.322-9.886 15.92-13.063 11.371-5.474 16.946-16.782 26.13-24.72 4-3.458 7.944-5.531 11.578-9.796 2.706-3.175 2.94-3.23 6.295-1.186 6.884 4.189 12.489 16.496 15.799 23.522a77.226 77.226 0 017.696 28.62c-1.805 5.828 5.74 4.667 10.278 5.276a180.924 180.924 0 0146.305 12.897c15.316 6.535 37.172 13.662 46.527 28.738 5.662 9.128-1.636 17.275-8.141 23.477a70.56 70.56 0 01-24.634 15.115c-5.06 1.836-21.413 2.1-20.254 9.79.692 4.57-.242 8.722 2.026 12.95 2.937 5.477 1.761 8.809-2.624 13.317-1.997 2.053-7.212 7.2-10.169 4.225z" fill-rule="evenodd"/>
</svg>
