<svg xmlns="http://www.w3.org/2000/svg" width="400" height="300">
    <path d="M217.8 137.2l-23.2 42.4 97.5-9.3z" fill="rgba(255,255,255,0.6949022596410335)" shape-rendering="crispEdges"/>
    <path d="M292.1 170.3l1.8-42.5-76.1 9.4z" fill="rgba(255,255,255,0.7037567388172343)" shape-rendering="crispEdges"/>
    <path d="M194.6 179.6l63.8 70.7 33.7-80z" fill="rgba(255,255,255,0.7507449710136521)" shape-rendering="crispEdges"/>
    <path d="M258.4 250.3l69.8-48.3-36.1-31.7z" fill="rgba(255,255,255,0.7984514429392826)" shape-rendering="crispEdges"/>
    <path d="M292.1 170.3l36.1 31.7-34.3-74.2z" fill="rgba(255,255,255,0.7611724591033029)" shape-rendering="crispEdges"/>
    <path d="M194.6 179.6l-15.4 110 79.2-39.3z" fill="rgba(255,255,255,0.7642053311220782)" shape-rendering="crispEdges"/>
    <path d="M120.8 96.8l-3.5 109.6 77.3-26.8z" fill="rgba(255,255,255,0.613896532427437)" shape-rendering="crispEdges"/>
    <path d="M194.6 179.6l-77.3 26.8 61.9 83.2z" fill="rgba(255,255,255,0.7059456196706984)" shape-rendering="crispEdges"/>
    <path d="M327.1 48.8l-58.4-5.6 25.2 84.6z" fill="rgba(255,255,255,0.6449644358283573)" shape-rendering="crispEdges"/>
    <path d="M293.9 127.8l-25.2-84.6-50.9 94z" fill="rgba(255,255,255,0.6474798667100307)" shape-rendering="crispEdges"/>
    <path d="M217.8 137.2l-97-40.4 73.8 82.8z" fill="rgba(255,255,255,0.6163135325061981)" shape-rendering="crispEdges"/>
    <path d="M268.7 43.2l-53.6-.8 2.7 94.8z" fill="rgba(255,255,255,0.5912734235062695)" shape-rendering="crispEdges"/>
    <path d="M267.1 356.7l79.1-75.1-87.8-31.3z" fill="rgba(255,255,255,0.899830274954426)" shape-rendering="crispEdges"/>
    <path d="M258.4 250.3l87.8 31.3-18-79.6z" fill="rgba(255,255,255,0.8574889691242181)" shape-rendering="crispEdges"/>
    <path d="M215.1 42.4l-94.3 54.4 97 40.4z" fill="rgba(255,255,255,0.568961568478638)" shape-rendering="crispEdges"/>
    <path d="M117.3 206.4l19.8 75.1 42.1 8.1z" fill="rgba(255,255,255,0.7288124432693924)" shape-rendering="crispEdges"/>
    <path d="M137.1 281.5l41 36.5 1.1-28.4z" fill="rgba(255,255,255,0.7899760782011678)" shape-rendering="crispEdges"/>
    <path d="M179.2 289.6l87.9 67.1-8.7-106.4z" fill="rgba(255,255,255,0.8542531088779166)" shape-rendering="crispEdges"/>
    <path d="M346.2 281.6l51.8-98.1-69.8 18.5z" fill="rgba(255,255,255,0.8722209575495677)" shape-rendering="crispEdges"/>
    <path d="M328.2 202l69.8-18.5-104.1-55.7z" fill="rgba(255,255,255,0.797170052497798)" shape-rendering="crispEdges"/>
    <path d="M373.7 87.2l-46.6-38.4-33.2 79z" fill="rgba(255,255,255,0.6926963930046743)" shape-rendering="crispEdges"/>
    <path d="M398 183.5l-24.3-96.3-79.8 40.6z" fill="rgba(255,255,255,0.765786523684316)" shape-rendering="crispEdges"/>
    <path d="M178.1 318l89 38.7-87.9-67.1z" fill="rgba(255,255,255,0.8321461698325947)" shape-rendering="crispEdges"/>
    <path d="M120.8 96.8L61.7 169l55.6 37.4z" fill="rgba(255,255,255,0.5710267404864984)" shape-rendering="crispEdges"/>
    <path d="M117.3 206.4l-47.5 50.8 67.3 24.3z" fill="rgba(255,255,255,0.6842719274130407)" shape-rendering="crispEdges"/>
    <path d="M61.7 169l8.1 88.2 47.5-50.8z" fill="rgba(255,255,255,0.6185353118734079)" shape-rendering="crispEdges"/>
    <path d="M137.1 281.5l-2.1 70.8 43.1-34.3z" fill="rgba(255,255,255,0.7813075368168938)" shape-rendering="crispEdges"/>
    <path d="M398 183.5l25.3-69.2-49.6-27.1z" fill="rgba(255,255,255,0.7982585420861747)" shape-rendering="crispEdges"/>
    <path d="M373.7 87.2l31.5-25-78.1-13.4z" fill="rgba(255,255,255,0.6996530371704163)" shape-rendering="crispEdges"/>
    <path d="M208.5-24l-80 44.1 86.6 22.3z" fill="rgba(255,255,255,0.476015042098273)" shape-rendering="crispEdges"/>
    <path d="M215.1 42.4l-86.6-22.3-7.7 76.7z" fill="rgba(255,255,255,0.4973934834437993)" shape-rendering="crispEdges"/>
    <path d="M120.8 96.8L33.7 90l28 79z" fill="rgba(255,255,255,0.5014088230037184)" shape-rendering="crispEdges"/>
    <path d="M208.5-24l6.6 66.4 53.6.8z" fill="rgba(255,255,255,0.5258833614293811)" shape-rendering="crispEdges"/>
    <path d="M423.3 114.3l-18.1-52.1-31.5 25z" fill="rgba(255,255,255,0.7525482586859047)" shape-rendering="crispEdges"/>
    <path d="M69.8 257.2l65.2 95.1 2.1-70.8z" fill="rgba(255,255,255,0.7461793957948126)" shape-rendering="crispEdges"/>
    <path d="M178.1 318l-3.2 69.2 92.2-30.5z" fill="rgba(255,255,255,0.830894449033076)" shape-rendering="crispEdges"/>
    <path d="M296.5-28.5l-88 4.5 60.2 67.2z" fill="rgba(255,255,255,0.5256782484109862)" shape-rendering="crispEdges"/>
    <path d="M296.5-28.5l-27.8 71.7 58.4 5.6z" fill="rgba(255,255,255,0.5849184431378792)" shape-rendering="crispEdges"/>
    <path d="M267.1 356.7l102.5-7.4-23.4-67.7z" fill="rgba(255,255,255,0.9366856460204872)" shape-rendering="crispEdges"/>
    <path d="M346.2 281.6l99.1-7.8-47.3-90.3z" fill="rgba(255,255,255,0.9342823877346139)" shape-rendering="crispEdges"/>
    <path d="M398 183.5l81.6-79.6-56.3 10.4z" fill="rgba(255,255,255,0.8062083830368162)" shape-rendering="crispEdges"/>
    <path d="M327-56.2l-30.5 27.7 30.6 77.3z" fill="rgba(255,255,255,0.577249543990547)" shape-rendering="crispEdges"/>
    <path d="M135 352.3l39.9 34.9 3.2-69.2z" fill="rgba(255,255,255,0.7923457910570505)" shape-rendering="crispEdges"/>
    <path d="M267.1 356.7L375.8 426l-6.2-76.7z" fill="rgba(255,255,255,0.9453324980926482)" shape-rendering="crispEdges"/>
    <path d="M440.3 310.7l5-36.9-99.1 7.8z" fill="rgba(255,255,255,0.9868098848203468)" shape-rendering="crispEdges"/>
    <path d="M104-26.1L77.5 25.2l51-5.1z" fill="rgba(255,255,255,0.397904593031429)" shape-rendering="crispEdges"/>
    <path d="M128.5 20.1l-51 5.1 43.3 71.6z" fill="rgba(255,255,255,0.450581523443058)" shape-rendering="crispEdges"/>
    <path d="M77.5 25.2L33.7 90l87.1 6.8z" fill="rgba(255,255,255,0.45011469091635564)" shape-rendering="crispEdges"/>
    <path d="M61.7 169l-79 88.5 87.1-.3z" fill="rgba(255,255,255,0.5991834185664022)" shape-rendering="crispEdges"/>
    <path d="M174.9 387.2l83.5 25.5 8.7-56z" fill="rgba(255,255,255,0.8542968393205228)" shape-rendering="crispEdges"/>
    <path d="M426.1 403.8l14.2-93.1-70.7 38.6z" shape-rendering="crispEdges"/>
    <path d="M369.6 349.3l70.7-38.6-94.1-29.1z" fill="rgba(255,255,255,0.9871922067983178)" shape-rendering="crispEdges"/>
    <path d="M423.3 114.3l56.3-10.4-74.4-41.7z" fill="rgba(255,255,255,0.7590438829157695)" shape-rendering="crispEdges"/>
    <path d="M405.2 62.2L327-56.2l.1 105z" fill="rgba(255,255,255,0.6302707369407775)" shape-rendering="crispEdges"/>
    <path d="M526.6 211.2l-47-107.3-81.6 79.6z" fill="rgba(255,255,255,0.8438879687496713)" shape-rendering="crispEdges"/>
    <path d="M495.1 254L398 183.5l47.3 90.3z" fill="rgba(255,255,255,0.9266039560742987)" shape-rendering="crispEdges"/>
    <path d="M208.5-24L104-26.1l24.5 46.2z" fill="rgba(255,255,255,0.4286254847858799)" shape-rendering="crispEdges"/>
    <path d="M77.5 25.2L-23.6 59.3 33.7 90z" fill="rgba(255,255,255,0.3934325899627462)" shape-rendering="crispEdges"/>
    <path d="M112.9-126.7L104-26.1 208.5-24z" fill="rgba(255,255,255,0.4240588304923222)" shape-rendering="crispEdges"/>
    <path d="M452.4-53.4L327-56.2l78.2 118.4z" fill="rgba(255,255,255,0.645509439867601)" shape-rendering="crispEdges"/>
    <path d="M296.5-28.5l-12.9-62.1L208.5-24z" fill="rgba(255,255,255,0.5299965757640166)" shape-rendering="crispEdges"/>
    <path d="M135 352.3l3.4 61.5 36.5-26.6z" fill="rgba(255,255,255,0.7807599562951509)" shape-rendering="crispEdges"/>
    <path d="M174.9 387.2l-36.5 26.6 120-1.1z" fill="rgba(255,255,255,0.8167510264092925)" shape-rendering="crispEdges"/>
    <path d="M71.2 406.3l67.2 7.5-3.4-61.5z" fill="rgba(255,255,255,0.7505136029802089)" shape-rendering="crispEdges"/>
    <path d="M516.5 327.6L495.1 254l-49.8 19.8z" fill="rgba(255,255,255,0.9826160312065136)" shape-rendering="crispEdges"/>
    <path d="M327-56.2l-43.4-34.4 12.9 62.1z" fill="rgba(255,255,255,0.564563009381527)" shape-rendering="crispEdges"/>
    <path d="M-41.4 210.3l24.1 47.2 79-88.5z" fill="rgba(255,255,255,0.5485408811619588)" shape-rendering="crispEdges"/>
    <path d="M69.8 257.2l-28.3 106 93.5-10.9z" fill="rgba(255,255,255,0.7218365060738505)" shape-rendering="crispEdges"/>
    <path d="M1.9 335.7l39.6 27.5 28.3-106z" fill="rgba(255,255,255,0.683030153564141)" shape-rendering="crispEdges"/>
    <path d="M258.4 412.7L375.8 426l-108.7-69.3z" fill="rgba(255,255,255,0.9128949557058149)" shape-rendering="crispEdges"/>
    <path d="M440.3 310.7l76.2 16.9-71.2-53.8z" shape-rendering="crispEdges"/>
    <path d="M138.4 413.8L375.8 426l-117.4-13.3z" fill="rgba(255,255,255,0.8753491427945845)" shape-rendering="crispEdges"/>
    <path d="M516.5 327.6l10.1-116.4-31.5 42.8z" fill="rgba(255,255,255,0.9582698344951496)" shape-rendering="crispEdges"/>
    <path d="M495.1 254l31.5-42.8L398 183.5z" fill="rgba(255,255,255,0.9022577593629345)" shape-rendering="crispEdges"/>
    <path d="M41.5 363.2l29.7 43.1 63.8-54z" fill="rgba(255,255,255,0.7222568536912148)" shape-rendering="crispEdges"/>
    <path d="M-45.4 108.6l4 101.7L61.7 169z" fill="rgba(255,255,255,0.48970843992695634)" shape-rendering="crispEdges"/>
    <path d="M-45.4 108.6L61.7 169l-28-79z" fill="rgba(255,255,255,0.4575265319865745)" shape-rendering="crispEdges"/>
    <path d="M-38.2 410.9l40.1-75.2-97.9-2.8z" fill="rgba(255,255,255,0.6499999999999999)" shape-rendering="crispEdges"/>
    <path d="M-17.3 257.5l19.2 78.2 67.9-78.5z" fill="rgba(255,255,255,0.6465877949684606)" shape-rendering="crispEdges"/>
    <path d="M41.5 363.2l-79.7 47.7 109.4-4.6z" fill="rgba(255,255,255,0.671735974632611)" shape-rendering="crispEdges"/>
    <path d="M283.6-90.6l-57-19.4-18.1 86z" fill="rgba(255,255,255,0.5096186680302708)" shape-rendering="crispEdges"/>
    <path d="M375.8 426l50.3-22.2-56.5-54.5z" fill="rgba(255,255,255,0.9916832853301457)" shape-rendering="crispEdges"/>
    <path d="M50.3-63.4l27.2 88.6L104-26.1z" fill="rgba(255,255,255,0.36760181248791923)" shape-rendering="crispEdges"/>
    <path d="M-7-57L-23.6 59.3 77.5 25.2z" fill="rgba(255,255,255,0.324389261198606)" shape-rendering="crispEdges"/>
    <path d="M-23.6 59.3l-21.8 49.3L33.7 90z" fill="rgba(255,255,255,0.40027661196193853)" shape-rendering="crispEdges"/>
    <path d="M526.6 211.2L503.9 20l-24.3 83.9z" fill="rgba(255,255,255,0.780298902533832)" shape-rendering="crispEdges"/>
    <path d="M479.6 103.9L503.9 20l-98.7 42.2z" fill="rgba(255,255,255,0.7223789132108019)" shape-rendering="crispEdges"/>
    <path d="M327-56.2l4-69.2-47.4 34.8z" fill="rgba(255,255,255,0.5746283048143596)" shape-rendering="crispEdges"/>
    <path d="M112.9-126.7L50.3-63.4 104-26.1z" fill="rgba(255,255,255,0.3779222428995126)" shape-rendering="crispEdges"/>
    <path d="M426.1 403.8l90.4-76.2-76.2-16.9z" shape-rendering="crispEdges"/>
    <path d="M503.9 20l-51.5-73.4-47.2 115.6z" fill="rgba(255,255,255,0.6612156987609827)" shape-rendering="crispEdges"/>
    <path d="M283.6-90.6l47.4-34.8L226.6-110z" fill="rgba(255,255,255,0.5453532553370678)" shape-rendering="crispEdges"/>
    <path d="M410.9-94.6L331-125.4l-4 69.2z" fill="rgba(255,255,255,0.6117798224384388)" shape-rendering="crispEdges"/>
    <path d="M452.4-53.4l-41.5-41.2L327-56.2z" fill="rgba(255,255,255,0.6471786857538973)" shape-rendering="crispEdges"/>
    <path d="M226.6-110l-113.7-16.7L208.5-24z" fill="rgba(255,255,255,0.4598404789399865)" shape-rendering="crispEdges"/>
    <path d="M331-125.4l-218.1-1.3L226.6-110z" fill="rgba(255,255,255,0.4955750662467835)" shape-rendering="crispEdges"/>
    <path d="M503.9 20l20.3-39.6-71.8-33.8zm-51.5-73.4l21.6-69.2-63.1 28z" fill="rgba(255,255,255,0.65)" shape-rendering="crispEdges"/>
    <path d="M526.6 211.2l-2.4-230.8L503.9 20z" fill="rgba(255,255,255,0.732305889850492)" shape-rendering="crispEdges"/>
    <path d="M-11.2-106.5L-7-57l57.3-6.4z" fill="rgba(255,255,255,0.30936747152027233)" shape-rendering="crispEdges"/>
    <path d="M50.3-63.4L-7-57l84.5 82.2z" fill="rgba(255,255,255,0.33523826601740436)" shape-rendering="crispEdges"/>
    <path d="M-23.6 59.3l-80.2 32.9 58.4 16.4z" fill="rgba(255,255,255,0.4011045592077911)" shape-rendering="crispEdges"/>
    <path d="M375.8 426l101.8 5.8-51.5-28z" shape-rendering="crispEdges"/>
    <path d="M426.1 403.8l51.5 28 38.9-104.2z" shape-rendering="crispEdges"/>
    <path d="M-126.8 435.4l604.4-3.6-101.8-5.8z" fill="rgba(255,255,255,0.8619410102197435)" shape-rendering="crispEdges"/>
    <path d="M-113.6 59l9.8 33.2 80.2-32.9z" fill="rgba(255,255,255,0.3818404399879607)" shape-rendering="crispEdges"/>
    <path d="M-45.4 108.6l-81.1 77 85.1 24.7z" fill="rgba(255,255,255,0.49618564792011355)" shape-rendering="crispEdges"/>
    <path d="M-96 332.9l97.9 2.8-19.2-78.2z" fill="rgba(255,255,255,0.6499999999999999)" shape-rendering="crispEdges"/>
    <path d="M71.2 406.3l-198 29.1 265.2-21.6z" fill="rgba(255,255,255,0.6741684890816031)" shape-rendering="crispEdges"/>
    <path d="M138.4 413.8l-265.2 21.6 502.6-9.4z" fill="rgba(255,255,255,0.7630129587818373)" shape-rendering="crispEdges"/>
    <path d="M1.9 335.7l-40.1 75.2 79.7-47.7z" fill="rgba(255,255,255,0.6515266451171555)" shape-rendering="crispEdges"/>
    <path d="M-96 332.9l78.7-75.4-110.3-10.9z" fill="rgba(255,255,255,0.6254896725064705)" shape-rendering="crispEdges"/>
    <path d="M-103.8 92.2l-22.7 93.4 81.1-77z" fill="rgba(255,255,255,0.45023342721275794)" shape-rendering="crispEdges"/>
    <path d="M-127.6 246.6l110.3 10.9-24.1-47.2z" fill="rgba(255,255,255,0.5778342198832735)" shape-rendering="crispEdges"/>
    <path d="M-115.8-17.2l2.2 76.2 90 .3z" fill="rgba(255,255,255,0.3393089628441278)" shape-rendering="crispEdges"/>
    <path d="M-103.8 92.2l-9.8-33.2-12.9 126.6z" fill="rgba(255,255,255,0.43096930799292754)" shape-rendering="crispEdges"/>
    <path d="M112.9-126.7l-73.1-11.7 10.5 75z" fill="rgba(255,255,255,0.3592106177895402)" shape-rendering="crispEdges"/>
    <path d="M-7-57l-108.8 39.8 92.2 76.5z" fill="rgba(255,255,255,0.3)" shape-rendering="crispEdges"/>
    <path d="M331-125.4l-291.2-13 73.1 11.7z" fill="rgba(255,255,255,0.4410817926891468)" shape-rendering="crispEdges"/>
    <path d="M-126.5 185.6l-1.1 61 86.2-36.3z" fill="rgba(255,255,255,0.5498570931102829)" shape-rendering="crispEdges"/>
    <path d="M524.2-19.6l-50.2-103-21.6 69.2zm-113.3-75l63.1-28-143-2.8z" fill="rgba(255,255,255,0.65)" shape-rendering="crispEdges"/>
    <path d="M331-125.4l143 2.8-434.2-15.8z" fill="rgba(255,255,255,0.5464183250122004)" shape-rendering="crispEdges"/>
    <path d="M39.8-138.4l-51 31.9 61.5 43.1z" fill="rgba(255,255,255,0.3230193928808148)" shape-rendering="crispEdges"/>
    <path d="M-102.3-122.3l-13.5 105.1L-7-57z" fill="rgba(255,255,255,0.3)" shape-rendering="crispEdges"/>
    <path d="M-113.6 59l-2.2-76.2-10.7 202.8z" fill="rgba(255,255,255,0.38843783084909467)" shape-rendering="crispEdges"/>
    <path d="M-127.6 246.6l.8 188.8L-96 332.9zm31.6 86.3l-30.8 102.5 88.6-24.5z" fill="rgba(255,255,255,0.6499999999999999)" shape-rendering="crispEdges"/>
    <path d="M-38.2 410.9l-88.6 24.5 198-29.1z" fill="rgba(255,255,255,0.6499999999999999)" shape-rendering="crispEdges"/>
    <path d="M39.8-138.4l-142.1 16.1 91.1 15.8zm-51 31.9l-91.1-15.8L-7-57z" fill="rgba(255,255,255,0.3)" shape-rendering="crispEdges"/>
</svg>
