<svg xmlns="http://www.w3.org/2000/svg" viewBox="0 0 315.232 238.645">
    <path d="M315.112 91.175c-.458-2.55-2.165-4.681-3.927-6.58-4.771-5.144-10.61-9.089-15.506-14.03-6.979-7.043-8.898-15.547-13.408-24.001a60.639 60.639 0 00-39.34-30.311 75.906 75.906 0 00-28.826-2.626 105.267 105.267 0 01-13.887-3.98C185.415 4.704 170.208.17 154.602.004s-31.87 4.553-42.71 15.783c-3.36 3.481-6.326 8.615-1.275 12.273 2.563 1.856 5.879 2.2 9.014 2.633a79.92 79.92 0 0114.23 3.214c1.876.622 8.757 2.136 8.541 4.897a2.617 2.617 0 01-1.197 1.645c-13.974 11.239-24.737 25.859-34.662 40.643a352.23 352.23 0 00-24.87 42.764c-7.21 14.903-11.909 30.67-17.012 46.37-1.358 4.177-2.798 9.027-6.561 11.704-4.116 2.927-9.743 2.631-14.543 2.643a73.754 73.754 0 00-16.815 2.245c-4.67 1.11-9.356 2.62-13.209 5.484-4.84 3.599-7.999 9.094-9.828 14.843A87.189 87.189 0 00.97 218.952c-.322 1.886-1.714 5.912-.444 7.566 1.376 1.79 4.682-2.707 5.75-3.452a22.228 22.228 0 018.801-3.25c15.62-2.824 33.468 3.94 45.96-9.291 3.858 9.942 12.875 15.562 23.02 17.544 9.015 1.761 22.63.524 28.155 9.757 1.72 2.873 2.657-2.67 2.852-3.52 1.178-5.143 3.082-9.502 1.302-14.846-2.36-7.085-8.954-11.87-15.182-15.397-6.225-3.524-12.517-6.988-10.376-15.426 2.81-11.079 12.241-21.252 21.009-28.183a134.921 134.921 0 0120.4-13.355c6.72-3.567 15.2-8.232 22.83-9.057a18.038 18.038 0 00.543 8.04c.87 2.313 2.425 3.961 5.048 4.137a12.07 12.07 0 006.62-2.014c5.913-3.384 10.011-8.763 15.45-12.543-.323 3.978-.251 13.414 6.397 11.1 9.068-3.156 15.289-11.69 21.592-18.457 2.768-2.972 6.983-2.945 10.7-3.262a130.502 130.502 0 0034.158-7.814 93.318 93.318 0 0110.927-3.576 61.544 61.544 0 0111.434-1.25c6.755-.32 15.098-.996 19.272-7.144.037-.02.073-.042.111-.06 1.942-.953 4.694-.686 6.813-1.317a18.078 18.078 0 008.859-5.346 9.298 9.298 0 002.142-7.361z"/>
</svg>
