<svg xmlns="http://www.w3.org/2000/svg" viewBox="0 0 196.147 256.111">
    <path d="M149.548 170.312a7.797 7.797 0 002.438 2.592c9.96 7.514 22.787 9.76 34.425 14.26 3.567 1.38 7.304 3.22 9.042 6.628s.1 8.623-3.705 9.022c-1.201 6.979-10.278 9.434-17.225 8.061-12.647-2.498-22.774-12.155-35.127-15.845a5.939 5.939 0 00-4.25-.105c-1.468.715-2.14 2.39-2.847 3.862-3.726 7.765-11.335 12.879-18.97 16.866-29.98 15.655-65.728 19.999-92.66 40.458a31.83 31.83 0 013.98-13.047l-14.207 6.2 7.268-8.528c-2.345.424-18.534-3.227-17.677-4.77a13.925 13.925 0 0016.599-5.156 13.716 13.716 0 01-12.474.376c10.005.603 17.377-8.729 23.358-16.77 8.707-11.708 19.196-23.244 33.229-27.239 4.93-1.404 10.822-2.29 13.293-6.78 2.552-4.638-.453-10.782-5.062-13.387s-10.21-2.565-15.49-2.206a23.74 23.74 0 0122.763-12.4c3.895.373 8.032 1.691 11.557-.005 4.118-1.98 5.464-7.16 5.728-11.722.781-13.474-3.737-26.73-4.007-40.224-.53-26.484 15.25-52.057 11.037-78.209a18.89 18.89 0 016.393 13.284 80.478 80.478 0 004.438-28.926l5.3 15.339c-.672-2.69 5.093-19.62 5.093-19.62s4.14 15.41 3.566 18.345A68.833 68.833 0 01135.633 0l-.808 17.414 10.383-12.77c-1.02 10.185-.072 20.46 1.138 30.625 1.338 11.246 2.995 22.45 4.653 33.653l2.225 15.043c3.897 26.348 7.62 54.25-2.684 78.81-1.014 2.417-2.159 5.191-.992 7.537z" fill-rule="evenodd"/>
</svg>
