<svg xmlns="http://www.w3.org/2000/svg" viewBox="0 0 172.67 155.35">
    <g data-name="Layer 2">
        <path d="M147 76.5c-6.84 12.12-5.95 27.71-11.05 40.62-2.48 6.28-7.61 16.4-16.25 13.24-4.64-1.69-6.22-6.94-6.76-11.37-1.36-11 3.83-20.08 3.44-30.39-.24-6.25-5.41-11.4-9-16.06-4.17-5.41-9.32-8.36-11.13-17.8-1-5.25.12-10.25 2.39-15.07a55 55 0 015.17-9.2 40 40 0 015.47-6.3 15.47 15.47 0 014.6-3.17c17.2-6.52 12.89 17.88 23.17 19.58 9.41 1.55 27.67-20.35 34.27-4.14 7.3 17.92-17 27.15-24.32 40.06zm-47.35 32.86c.24-7.52 7.91-17-.33-27.42-2.26-2.84-5.18-3.8-7.89-4.7-5.65-1.89-11-1.81-17-5.55-9.03-5.69-9.69-19.2-20.19-19.4a8 8 0 00-3.06.54A16.18 16.18 0 0047 55.2a15.54 15.54 0 00-4.17 5.09A15.27 15.27 0 0041 70.14c3.75 10.23 11.94 25.63.47 22.43-3.55-1-7.4-4-10.92-6.23-5.25-3.41-10.33-6.57-15.69-9.34C8.11 73.48-.61 71.64 0 79c.82 9.3 17.5 18 24.87 22.9 2.34 1.56 4.67 3.12 7 4.58 6.61 4.08 13.56 8.54 20.22 11.9 4.61 2.32 9.6 3.71 14.11 7.24 5.67 4.43 5.09 11.85 8.74 17 6.19 8.76 17.66 14.22 23.9 12.3 3.42-1.05 5.2-4.37 6.12-7.79 1.66-6.22.17-14.27-2-22.24-1.45-5.19-3.46-10.89-3.31-15.53zM60 46.64C66.49 49.4 70.72 55.43 78 57c13.27 3 16-15 12.81-24.24a23.09 23.09 0 00-7.36-10.5c-3.75-3-8-4.91-12-7.61C62.5 8.43 53.66-2.31 42 .44a11.91 11.91 0 00-7.12 4.38C27.62 15.11 32 26.61 39.74 36c5.43 6.48 12.8 7.49 20.26 10.64z" fill-rule="evenodd" data-name="Layer 1"/>
    </g>
</svg>
