<svg xmlns="http://www.w3.org/2000/svg" preserveAspectRatio="xMidYMax meet" class="svg-separator sep8" viewBox="0 0 1600 200">
    <path d="M1615.6 58.4c-8.6 20.7-19.2 31.4-26.8 36.8-4.4-7.6-8.7-18.4-10.9-33.4-9.2 22.6-20.9 33.4-28.6 38.3-2.4-7.7-4.4-16.4-6-26.2-10.4 25.9-22.8 42.1-33.4 52.2-2.8-6.5-5.2-14.5-6.8-24.4-5.2 13.2-11.2 22.4-16.8 28.8-3.9-5.1-8.1-12.1-11.9-21.5l20.4 2.1s-20-9.9-26.6-49.3c-4.6 12-10 20.7-15.2 27-8.1-12.1-16.5-30.2-21.1-56.8-15.1 39.7-35.4 57-47.2 64.2-3.8-7.1-7.4-16.7-9.7-29.2-8.5 22.9-19.8 34-27.3 39.2-8.5-11.9-17.5-30.1-22.7-57.5-8.3 22.9-18.3 38.4-27.6 48.9-5.4-7.4-11.2-18.9-14.5-36.1-7.8 22-18.2 33.2-25.7 38.8-2.7-4.1-5.5-9-8-14.9 6.8.5 13.6 1 20.4 1.4 0 0-20.4-9.2-28.3-48.4-8.5 24.4-20.4 35.7-27.8 40.6-9-11.7-18.8-30-24.7-58-17 50.2-43.2 65.9-51.6 69.7-7.3-11.5-14.5-27.5-19.4-49.5-9.3 28.5-21.7 46-32.1 56.5-4.5-7.1-9-17-12.1-30.5-5.7 18-13.4 29-19.9 35.6-8.8-11.5-18.2-29.1-24.3-55.3-5.6 17.9-12.4 31.5-19.2 41.8-6.8-5.6-17.6-18-23.7-43.2-4.8 15.8-11.2 26.3-17.1 33.2-9.3-5.7-32.3-24.1-44.6-72.7-8.8 29.7-21.1 47.7-31.5 58.5-4.3-6.5-8.3-15.3-11.3-26.9-11 38.5-32 46-32 46 6.8.1 13.6.1 20.4.2-8.5 15.8-17.6 23.9-23.2 27.7-7.1-7.5-15-18-22.5-32.6 10.8 0 21.7.1 32.5.2 0 0-33.2-12.5-49.9-74-7.2 26.2-17.4 43.4-26.7 54.6-4.1-6.6-8.2-15.2-11.3-26.6-2.2 8.3-4.9 15.2-7.8 20.9C752 43.5 741.6 26.3 734.1 0c-11.6 44.1-31.9 63.1-42.4 70.4-6.3-6.8-13.5-17.9-18.7-35.6-6 23.7-16 36-23 41.9-7.9-10.8-16-25.9-22.3-46.9-5.8 23.6-14.1 40.1-22.2 51.6-3.5-5.9-6.9-13.4-9.7-22.6-8.3 34.8-25.7 45.2-29.2 47h-.6c-6.8-10.2-13.5-23.7-19.1-41.3-3.4 14.8-7.9 26.9-12.7 36.6-7.3-5.2-18.6-16.8-26.4-41C505 72.7 501 82 496.8 89c-7.9-10.6-16-25.2-22.6-45.3-4.7 21.5-11.7 37.2-18.8 48.6-6.9-6.4-15.3-17.5-21.6-36.4-5.7 26.8-17.1 39.4-23.7 44.7-10.5-10.4-22.8-27.6-32.4-55.4-3.9 19.2-9.7 33.9-15.8 45-6.6-6.5-14.4-17.2-20.5-34.5-2.2 11.3-5.5 20-9 26.8-11.9-8.4-29.9-26.2-43.1-63.1C277.2 82 245.1 96.9 245 97c10.8-.9 21.7-1.8 32.5-2.7-9 21.2-19.4 34.5-27.5 42.5-5.8-6.5-12.1-16.2-17.3-30.4-.8 4.3-1.7 8.3-2.8 12-7.2-4-20.7-14.7-30.6-41.1-6.9 39.4-27 49-27 49 6.8-.7 13.5-1.3 20.3-1.9-.9 2.1-1.8 4.1-2.7 6-11.9 1.1-23.8 2.3-35.7 3.5-7-3.7-21.1-14.1-31.6-41-4.5 27.3-15.4 40.4-21.7 45.9-5.9-6.4-12.3-15.8-17.7-29.7-1.5 9.8-3.9 17.7-6.6 24.2-9.9-10.3-21.4-26-31.1-50.2-2.2 14.5-5.6 26.5-9.5 36.4-7.5-5.7-17.5-16.3-25.7-36.3-1 7.2-2.5 13.4-4.3 18.7-10.5-10-22.5-25.7-32.8-50.4-.4 2.5-.7 4.9-1.2 7.2 7.3 57.9 10.2 77.5 17.5 135.4l1619.5-1.6c6.2-49.3 7.4-58.7 13.6-108-2.9-6.8-5.5-15.4-7-26.1z" opacity=".3"/>
    <path d="M85.8 155c5.1-.6 10.1-1.1 15.2-1.7 0 0-13.6-3.6-27.3-24 5.9-.7 11.7-1.3 17.6-1.9 0 0-18.8-4.7-31.6-37-5.3 34.4-22.6 43.1-22.6 43.1 5.9-.7 11.7-1.4 17.6-2C46 154.4 33.5 161 33.5 161c5.1-.6 10.1-1.2 15.2-1.8-11.7 23-25.4 30-25.5 30l94.1-10.6s-14.9-3.7-31.5-23.6zm281.7-23.1c4.7-.3 9.5-.6 14.2-.9 0 0-12.6-3.9-24.5-23.6 5.5-.4 11-.7 16.5-1.1 0 0-17.3-5.1-28-35.9-6.3 32-22.8 39.4-22.8 39.4l16.5-1.2c-9.1 21.1-21 26.7-21 26.7 4.7-.4 9.5-.7 14.2-1-11.9 21.1-25 27.1-25 27.1l88.3-6.1c.1 0-13.7-4.2-28.4-23.4zm347.1-23c6.5-.1 13-.2 19.5-.2 0 0-16.8-6.3-31.7-33.9l22.6-.3s-23.3-8.2-35.7-50.9c-11 43.1-33.9 52.1-33.9 52.1 7.5-.2 15.1-.3 22.6-.5-13.9 28.1-30.5 34.9-30.5 34.9 6.5-.2 13-.3 19.5-.4-17.7 27.9-35.9 35.1-35.9 35.1l120.6-2.1c0 .1-18.4-6.6-37.1-33.8zm283.1 6.3c5.7.2 11.5.3 17.2.5 0 0-14.6-6.2-26.7-31.1l20 .6S988 77 978.7 38.9c-11.3 37.6-31.9 44.7-31.9 44.7 6.7.1 13.3.3 20 .5-13.4 24.3-28.3 29.6-28.3 29.7 5.7.1 11.5.2 17.2.4-16.7 23.9-33 29.6-33 29.6l106.5 2.8c0-.1-16.1-6.7-31.5-31.4zm226.9 9.5c5.9.4 11.9.8 17.8 1.2 0 0-15-6.9-26.6-33.2 6.9.4 13.8.9 20.7 1.3 0 0-20.7-9.2-29-49.1-13.1 38.6-34.7 45.2-34.7 45.2l20.7 1.2c-14.7 24.7-30.4 29.7-30.4 29.7 5.9.3 11.9.7 17.8 1-18.1 24.2-35.3 29.5-35.3 29.5l110.4 6.7c.1.1-16.3-7.3-31.4-33.5zm132.6 19.6c4.1.3 8.2.7 12.3 1.1 0 0-10.2-5-17.9-23.3 4.8.4 9.5.8 14.3 1.2 0 0-14.1-6.6-19.2-34.3-9.6 26.5-24.6 30.7-24.6 30.7 4.8.4 9.5.8 14.3 1.1-10.5 16.8-21.4 20.1-21.4 20.1 4.1.3 8.2.6 12.3 1-12.9 16.4-24.9 19.8-24.9 19.8l76.2 6.3c-.1 0-11.4-5.3-21.4-23.7zm236.5 15.2l17.4 2.1s-14.3-7.6-24.2-34c6.8.8 13.5 1.6 20.3 2.5 0 0-19.8-10.2-25.7-49.7-15 37.1-36.6 42.4-36.6 42.4 6.8.8 13.5 1.5 20.3 2.3-15.8 23.4-31.5 27.5-31.5 27.5 5.8.7 11.6 1.3 17.4 2-19.1 22.7-36.3 27-36.3 27l104 12.2c1.3.2 2.7.3 4 .5-.1-.1-15.8-8.3-29.1-34.8z" opacity=".8"/>
    <path d="M1475.4 177s-16.4-8.1-30.8-35.3c6 .6 12.1 1.2 18.1 1.8 0 0-15-7.6-25.8-34.8l21 2.1s-20.7-10.1-27.7-51c-14.7 38.8-36.9 44.7-37 44.7 7 .6 14 1.3 21 2-15.9 24.6-32 29.2-32 29.2 6 .5 12.1 1.1 18.1 1.7-19.3 24-37 28.8-37 28.8-10.7-.9-21.3-1.9-32-2.7 0 0-18.1-8.4-34.4-37.7 6.6.5 13.2 1 19.7 1.6 0 0-16.5-7.9-29-37.2 7.6.6 15.3 1.2 22.9 1.8 0 0-22.8-10.5-31.5-54.8-15 42.6-39.1 49.6-39.1 49.7 7.7.5 15.3 1.1 23 1.6-16.7 27.2-34.1 32.6-34.1 32.6 6.6.4 13.2.9 19.7 1.3-20.4 26.6-39.5 32.3-39.5 32.3-10.7-.7-21.4-1.3-32.1-2 0 0-12.9-5.6-24.8-26 4.6.3 9.3.5 13.9.8 0 0-11.7-5.3-20.9-25.8 5.4.3 10.8.6 16.1.9 0 0-16.2-7-22.9-38.1-9.9 30.3-26.7 35.6-26.7 35.6 5.4.3 10.8.5 16.1.8-11.3 19.4-23.5 23.4-23.5 23.4 4.6.2 9.3.4 13.9.7-14 19-27.4 23.3-27.4 23.3-53.5-2.4-107-4.2-160.5-5.3 0 0-21.3-8.4-42.1-40.7 7.6.1 15.1.2 22.7.4 0 0-19.4-7.9-35.9-40.5 8.8.1 17.6.2 26.4.4 0 0-26.9-10.4-40.1-60.5C847.1 52 820 61.8 820 61.8c8.8 0 17.6.1 26.4.1-17.1 32.3-36.6 39.8-36.7 39.8 7.6 0 15.1 0 22.7.1-21.4 32-42.8 39.9-42.9 39.9-46.2.1-92.3.6-138.5 1.7 0 0-20.7-7.1-41.9-37.2l21.7-.6s-18.9-6.7-36-37.3c8.4-.3 16.8-.5 25.3-.7 0 0-26.1-8.8-40.8-56.2-11.5 48.3-36.9 58.8-36.9 58.8 8.4-.3 16.8-.7 25.3-1-15 31.6-33.4 39.6-33.4 39.6 7.2-.3 14.5-.6 21.7-.9-19.2 31.4-39.3 39.9-39.4 39.9l-38.1 1.8s-17.2-5.4-35.2-29.6c5.9-.3 11.9-.6 17.8-1 0 0-15.6-5.1-30.3-29.8 6.9-.4 13.8-.8 20.7-1.1 0 0-21.6-6.7-34.6-45.3-8.4 39.9-29 49-29 49 6.9-.4 13.8-.9 20.7-1.3-11.7 26.3-26.6 33.2-26.6 33.2 5.9-.4 11.9-.8 17.8-1.1-15.1 26.2-31.5 33.5-31.5 33.5-40.1 2.7-80.1 5.8-120.2 9.2 0 0-22.1-6.1-46.2-36 7.5-.7 15.1-1.4 22.6-2.1 0 0-20.2-5.8-40-36.5 8.8-.8 17.6-1.6 26.3-2.4 0 0-27.9-7.4-46.3-55.9-8.3 50.9-34.2 63.6-34.2 63.6 8.8-.9 17.6-1.8 26.3-2.7-13.6 34-32.3 43.5-32.3 43.5 7.5-.8 15.1-1.6 22.6-2.3-17.9 34.1-38.4 44.2-38.4 44.3-38 4.1-75.9 7.6-113.8 12.3.4 3.3.8 7.6 1.3 10.9 0 13.3 1608 13.3 1608 0 .4-3.3.8-7.6 1.3-10.9-43.3-5.5-86.5-9.5-129.9-14.1z"/>
</svg>
