<?xml version="1.0" encoding="UTF-8" standalone="no"?>
<!-- Generator: Adobe Illustrator 19.0.0, SVG Export Plug-In . SVG Version: 6.00 Build 0)  -->

<svg
   xmlns:dc="http://purl.org/dc/elements/1.1/"
   xmlns:cc="http://creativecommons.org/ns#"
   xmlns:rdf="http://www.w3.org/1999/02/22-rdf-syntax-ns#"
   xmlns:svg="http://www.w3.org/2000/svg"
   xmlns="http://www.w3.org/2000/svg"
   xmlns:sodipodi="http://sodipodi.sourceforge.net/DTD/sodipodi-0.dtd"
   xmlns:inkscape="http://www.inkscape.org/namespaces/inkscape"
   version="1.1"
   id="Layer_1"
   x="0px"
   y="0px"
   viewBox="0 0 505 505"
   style="enable-background:new 0 0 505 505;"
   xml:space="preserve"
   sodipodi:docname="email.svg"
   inkscape:version="0.92.0 r15299"><metadata
     id="metadata43"><rdf:RDF><cc:Work
         rdf:about=""><dc:format>image/svg+xml</dc:format><dc:type
           rdf:resource="http://purl.org/dc/dcmitype/StillImage" /><dc:title /></cc:Work></rdf:RDF></metadata><defs
     id="defs41" /><sodipodi:namedview
     pagecolor="#ffffff"
     bordercolor="#666666"
     borderopacity="1"
     objecttolerance="10"
     gridtolerance="10"
     guidetolerance="10"
     inkscape:pageopacity="0"
     inkscape:pageshadow="2"
     inkscape:window-width="1920"
     inkscape:window-height="1017"
     id="namedview39"
     showgrid="false"
     inkscape:zoom="0.6608998"
     inkscape:cx="-110.05455"
     inkscape:cy="410.34145"
     inkscape:window-x="-8"
     inkscape:window-y="-8"
     inkscape:window-maximized="1"
     inkscape:current-layer="Layer_1"
     borderlayer="true" /><path
     style="fill:#ded1f2;fill-opacity:1;stroke-width:1.194754"
     d="m 54.471192,356.14658 c 0,-166.66819 135.007198,-301.675388 301.675388,-301.675388 166.5487,0 301.67538,135.007198 301.67538,301.675388 0,166.66817 -135.12668,301.67538 -301.67538,301.67538 -166.66819,0 -301.675388,-135.00721 -301.675388,-301.67538 z"
     id="path2"
     inkscape:connector-curvature="0" /><g
     id="g8"
     transform="scale(1.3026177)" /><g
     id="g10"
     transform="scale(1.3026177)" /><g
     id="g12"
     transform="scale(1.3026177)" /><g
     id="g14"
     transform="scale(1.3026177)" /><g
     id="g16"
     transform="scale(1.3026177)" /><g
     id="g18"
     transform="scale(1.3026177)" /><g
     id="g20"
     transform="scale(1.3026177)" /><g
     id="g22"
     transform="scale(1.3026177)" /><g
     id="g24"
     transform="scale(1.3026177)" /><g
     id="g26"
     transform="scale(1.3026177)" /><g
     id="g28"
     transform="scale(1.3026177)" /><g
     id="g30"
     transform="scale(1.3026177)" /><g
     id="g32"
     transform="scale(1.3026177)" /><g
     id="g34"
     transform="scale(1.3026177)" /><g
     id="g36"
     transform="scale(1.3026177)" /><path
     inkscape:connector-curvature="0"
     d="m 281.76716,529.19554 c 27.99462,9.77382 58.38437,-1.99616 72.99376,-26.55557 L 241.14037,462.9714 c -3.82831,28.32342 12.63218,56.45033 40.62679,66.22414 z m 0,0"
     id="path4"
     style="fill:#9178b7;fill-opacity:1;stroke-width:1.53536594" /><path
     inkscape:connector-curvature="0"
     d="m 454.97461,381.50764 c -0.0736,-0.0257 -0.11887,-0.0415 -0.18687,-0.0653 -59.67543,-20.8346 -91.29336,-86.33378 -70.45084,-146.03188 5.72511,-16.39813 14.92428,-30.59236 26.36198,-42.26448 -3.29602,-1.51283 -6.65995,-2.92233 -10.15928,-4.14406 -59.766,-20.86622 -125.15573,10.65649 -146.03184,70.45084 l -15.05215,43.11307 c -10.68122,30.59363 -34.17187,54.79029 -64.63445,66.47768 -10.17733,3.96817 -17.38414,13.4202 -18.20325,24.79116 -0.9164,13.28721 8.329,25.17993 20.89938,29.56865 l 251.64586,87.85762 c 13.1706,4.59829 28.58431,0.40642 35.75467,-11.56127 5.54241,-9.2518 5.48702,-20.48337 0.002,-29.68445 -15.90548,-26.7325 -19.22019,-58.96007 -9.94599,-88.50764 z m 0,0"
     id="path6"
     style="fill:#9178b7;fill-opacity:1;stroke-width:1.53536594" /><path
     inkscape:connector-curvature="0"
     d="m 569.88056,300.18973 c -14.90587,42.69409 -61.59697,65.2195 -104.29102,50.31364 -42.69409,-14.90587 -65.21947,-61.59696 -50.3136,-104.29106 14.90586,-42.69403 61.59693,-65.21944 104.29101,-50.31357 42.69406,14.90586 65.21947,61.59694 50.31361,104.29099 z m 0,0"
     id="path8"
     style="fill:#9178b7;fill-opacity:1;stroke-width:1.53536594" /><rect
     style="opacity:0.5;fill:#ffffff;fill-opacity:0.78431373;fill-rule:evenodd;stroke:none;stroke-width:5.62767839;stroke-linecap:round;stroke-linejoin:round;stroke-miterlimit:4;stroke-dasharray:none;stroke-dashoffset:0;stroke-opacity:1;paint-order:stroke fill markers"
     id="rect4504"
     width="768.56519"
     height="678.05548"
     x="-61.99469"
     y="-11.059112" /></svg>