<?xml version="1.0" encoding="UTF-8" standalone="no"?>
<!-- Generator: Adobe Illustrator 19.0.0, SVG Export Plug-In . SVG Version: 6.00 Build 0)  -->

<svg
   xmlns:dc="http://purl.org/dc/elements/1.1/"
   xmlns:cc="http://creativecommons.org/ns#"
   xmlns:rdf="http://www.w3.org/1999/02/22-rdf-syntax-ns#"
   xmlns:svg="http://www.w3.org/2000/svg"
   xmlns="http://www.w3.org/2000/svg"
   xmlns:sodipodi="http://sodipodi.sourceforge.net/DTD/sodipodi-0.dtd"
   xmlns:inkscape="http://www.inkscape.org/namespaces/inkscape"
   version="1.1"
   id="Capa_1"
   x="0px"
   y="0px"
   viewBox="0 0 512 512"
   style="enable-background:new 0 0 512 512;"
   xml:space="preserve"
   sodipodi:docname="support.svg"
   inkscape:version="0.92.0 r15299"><metadata
     id="metadata75"><rdf:RDF><cc:Work
         rdf:about=""><dc:format>image/svg+xml</dc:format><dc:type
           rdf:resource="http://purl.org/dc/dcmitype/StillImage" /></cc:Work></rdf:RDF></metadata><defs
     id="defs73" /><sodipodi:namedview
     pagecolor="#ffffff"
     bordercolor="#666666"
     borderopacity="1"
     objecttolerance="10"
     gridtolerance="10"
     guidetolerance="10"
     inkscape:pageopacity="0"
     inkscape:pageshadow="2"
     inkscape:window-width="2560"
     inkscape:window-height="1017"
     id="namedview71"
     showgrid="false"
     inkscape:zoom="0.92187498"
     inkscape:cx="127.5288"
     inkscape:cy="162.24021"
     inkscape:window-x="1912"
     inkscape:window-y="-8"
     inkscape:window-maximized="1"
     inkscape:current-layer="g22" /><path
     style="fill:#9178b7;fill-opacity:1;stroke:none"
     d="m 374.18666,111.86429 c -136.624,0 -247.29601,110.672 -247.29601,247.296 0,136.624 110.67201,247.296 247.29601,247.296 136.624,0 247.296,-110.672 247.296,-247.296 0,-136.624 -110.672,-247.296 -247.296,-247.296 z m 0,368.576 c -66.928,0 -121.12,-54.336 -121.12,-121.264 0,-66.928 54.192,-121.12 121.12,-121.12 66.928,0 121.264,54.192 121.264,121.12 0.016,66.912 -54.336,121.264 -121.264,121.264 z"
     id="path10"
     inkscape:connector-curvature="0" /><g
     id="g22"
     transform="translate(81.305295,78.237171)"
     style="stroke:none"><path
       style="fill:#eceff1;fill-opacity:1;stroke:#eceff1;stroke-opacity:1"
       d="m 195.61736,53.531119 53.776,114.448001 c 13.504,-5.2 28.128,-8.16 43.488,-8.16 15.344,0 29.968,2.96 43.488,8.16 l 53.776,-114.448001 c -29.856,-12.784 -62.72,-19.904 -97.264,-19.904 -34.544,0 -67.408,7.12 -97.264,19.904 z"
       id="path14"
       inkscape:connector-curvature="0" /><path
       style="fill:#eceff1;fill-opacity:1;stroke:#eceff1;stroke-opacity:1"
       d="m 171.76136,280.92312 c 0,-15.36 2.976,-29.984 8.176,-43.488 l -114.448003,-53.776 c -12.784,29.856 -19.904,62.72 -19.904,97.264 0,34.544 7.12,67.408 19.904,97.264 l 114.432003,-53.776 c -5.184,-13.52 -8.16,-28.144 -8.16,-43.488 z"
       id="path16"
       inkscape:connector-curvature="0" /><path
       style="fill:#eceff1;fill-opacity:1;stroke:#eceff1;stroke-opacity:1"
       d="m 390.14536,508.31512 -53.728,-114.32 c -13.536,5.216 -28.176,8.208 -43.536,8.208 -15.376,0 -30.016,-2.992 -43.552,-8.208 l -53.728,114.336 c 29.856,12.784 62.72,19.904 97.264,19.904 34.56,-0.016 67.424,-7.136 97.28,-19.92 z"
       id="path18"
       inkscape:connector-curvature="0" /><path
       style="fill:#eceff1;fill-opacity:1;stroke:#eceff1;stroke-opacity:1"
       d="m 414.16136,280.92312 c 0,15.36 -2.976,30 -8.208,43.536 l 114.32,53.728 c 12.784,-29.856 19.904,-62.72 19.904,-97.264 0,-34.544 -7.12,-67.408 -19.904,-97.264 l -114.336,53.728 c 5.232,13.52 8.224,28.176 8.224,43.536 z"
       id="path20"
       inkscape:connector-curvature="0" /><rect
       style="opacity:0.5;fill:#ffffff;fill-opacity:0.78431373;fill-rule:evenodd;stroke:none;stroke-width:5.62767839;stroke-linecap:round;stroke-linejoin:round;stroke-miterlimit:4;stroke-dasharray:none;stroke-dashoffset:0;stroke-opacity:1;paint-order:stroke fill markers"
       id="rect4504"
       width="768.56519"
       height="678.05548"
       x="-178.1302"
       y="-39.773388" /></g><g
     id="g40"
     transform="translate(81.305295,78.237171)" /><g
     id="g42"
     transform="translate(81.305295,78.237171)" /><g
     id="g44"
     transform="translate(81.305295,78.237171)" /><g
     id="g46"
     transform="translate(81.305295,78.237171)" /><g
     id="g48"
     transform="translate(81.305295,78.237171)" /><g
     id="g50"
     transform="translate(81.305295,78.237171)" /><g
     id="g52"
     transform="translate(81.305295,78.237171)" /><g
     id="g54"
     transform="translate(81.305295,78.237171)" /><g
     id="g56"
     transform="translate(81.305295,78.237171)" /><g
     id="g58"
     transform="translate(81.305295,78.237171)" /><g
     id="g60"
     transform="translate(81.305295,78.237171)" /><g
     id="g62"
     transform="translate(81.305295,78.237171)" /><g
     id="g64"
     transform="translate(81.305295,78.237171)" /><g
     id="g66"
     transform="translate(81.305295,78.237171)" /><g
     id="g68"
     transform="translate(81.305295,78.237171)" /></svg>