<?xml version="1.0" encoding="UTF-8" standalone="no"?>
<!-- Generator: Adobe Illustrator 19.0.0, SVG Export Plug-In . SVG Version: 6.00 Build 0)  -->

<svg
   xmlns:dc="http://purl.org/dc/elements/1.1/"
   xmlns:cc="http://creativecommons.org/ns#"
   xmlns:rdf="http://www.w3.org/1999/02/22-rdf-syntax-ns#"
   xmlns:svg="http://www.w3.org/2000/svg"
   xmlns="http://www.w3.org/2000/svg"
   xmlns:sodipodi="http://sodipodi.sourceforge.net/DTD/sodipodi-0.dtd"
   xmlns:inkscape="http://www.inkscape.org/namespaces/inkscape"
   version="1.1"
   id="Capa_1"
   x="0px"
   y="0px"
   viewBox="0 0 512.001 512.001"
   style="enable-background:new 0 0 512.001 512.001;"
   xml:space="preserve"
   sodipodi:docname="welcome.svg"
   inkscape:version="0.92.0 r15299"><metadata
     id="metadata99"><rdf:RDF><cc:Work
         rdf:about=""><dc:format>image/svg+xml</dc:format><dc:type
           rdf:resource="http://purl.org/dc/dcmitype/StillImage" /></cc:Work></rdf:RDF></metadata><defs
     id="defs97" /><sodipodi:namedview
     pagecolor="#ffffff"
     bordercolor="#666666"
     borderopacity="1"
     objecttolerance="10"
     gridtolerance="10"
     guidetolerance="10"
     inkscape:pageopacity="0"
     inkscape:pageshadow="2"
     inkscape:window-width="1920"
     inkscape:window-height="1017"
     id="namedview95"
     showgrid="false"
     inkscape:zoom="1.3037256"
     inkscape:cx="154.95189"
     inkscape:cy="223.3697"
     inkscape:window-x="-8"
     inkscape:window-y="-8"
     inkscape:window-maximized="1"
     inkscape:current-layer="Capa_1" /><circle
     style="fill:#ded1f2;fill-opacity:1;stroke-width:0.8621738"
     cx="256.00003"
     cy="252.93185"
     r="220.71649"
     id="circle2" /><g
     id="g20"
     transform="matrix(0.86217384,0,0,0.86217384,35.283516,32.215367)"><path
       style="fill:#34abe0"
       d="m 469.869,206.196 c -3.882,0 -7.029,-3.147 -7.029,-7.029 v -11.259 c 0,-3.882 3.147,-7.029 7.029,-7.029 3.882,0 7.029,3.147 7.029,7.029 v 11.259 c -0.001,3.883 -3.148,7.029 -7.029,7.029 z"
       id="path4"
       inkscape:connector-curvature="0" /><path
       style="fill:#34abe0"
       d="m 469.869,263.776 c -3.882,0 -7.029,-3.147 -7.029,-7.029 V 245.49 c 0,-3.882 3.147,-7.029 7.029,-7.029 3.882,0 7.029,3.147 7.029,7.029 v 11.258 c -0.001,3.881 -3.148,7.028 -7.029,7.028 z"
       id="path6"
       inkscape:connector-curvature="0" /><path
       style="fill:#34abe0"
       d="m 504.288,229.358 h -11.259 c -3.882,0 -7.029,-3.147 -7.029,-7.029 0,-3.882 3.147,-7.029 7.029,-7.029 h 11.259 c 3.882,0 7.029,3.147 7.029,7.029 0,3.881 -3.148,7.029 -7.029,7.029 z"
       id="path8"
       inkscape:connector-curvature="0" /><path
       style="fill:#34abe0"
       d="M 446.707,229.358 H 435.45 c -3.882,0 -7.029,-3.147 -7.029,-7.029 0,-3.882 3.147,-7.029 7.029,-7.029 h 11.258 c 3.882,0 7.029,3.147 7.029,7.029 -0.002,3.881 -3.148,7.029 -7.03,7.029 z"
       id="path10"
       inkscape:connector-curvature="0" /><path
       style="fill:#34abe0"
       d="m 391.867,22.724 c -3.882,0 -7.029,-3.147 -7.029,-7.029 V 7.029 c 0,-3.882 3.147,-7.029 7.029,-7.029 3.882,0 7.029,3.147 7.029,7.029 v 8.666 c 0,3.883 -3.147,7.029 -7.029,7.029 z"
       id="path12"
       inkscape:connector-curvature="0" /><path
       style="fill:#34abe0"
       d="m 391.867,67.048 c -3.882,0 -7.029,-3.147 -7.029,-7.029 v -8.666 c 0,-3.882 3.147,-7.029 7.029,-7.029 3.882,0 7.029,3.147 7.029,7.029 v 8.666 c 0,3.882 -3.147,7.029 -7.029,7.029 z"
       id="path14"
       inkscape:connector-curvature="0" /><path
       style="fill:#34abe0"
       d="m 418.362,40.553 h -8.666 c -3.882,0 -7.029,-3.147 -7.029,-7.029 0,-3.882 3.147,-7.029 7.029,-7.029 h 8.666 c 3.882,0 7.029,3.147 7.029,7.029 0,3.882 -3.147,7.029 -7.029,7.029 z"
       id="path16"
       inkscape:connector-curvature="0" /><path
       style="fill:#34abe0"
       d="m 374.038,40.553 h -8.666 c -3.882,0 -7.029,-3.147 -7.029,-7.029 0,-3.882 3.147,-7.029 7.029,-7.029 h 8.666 c 3.882,0 7.029,3.147 7.029,7.029 0,3.882 -3.147,7.029 -7.029,7.029 z"
       id="path18"
       inkscape:connector-curvature="0" /></g><path
     style="fill:#9178b7;fill-opacity:1;stroke-width:0.8621738"
     d="m 298.98111,139.77931 c -1.09841,0 -2.21061,-0.29831 -3.21073,-0.92511 -2.83569,-1.77694 -3.69529,-5.51619 -1.9192,-8.35187 8.88986,-14.19398 16.29077,-28.09049 21.99663,-41.303308 1.32689,-3.071925 4.89112,-4.486752 7.96563,-3.160729 3.07192,1.326886 4.48762,4.893699 3.15987,7.965625 -5.94815,13.774092 -13.63787,28.218092 -22.85278,42.931942 -1.14842,1.83643 -3.12107,2.84345 -5.13942,2.84345 z"
     id="path22"
     inkscape:connector-curvature="0" /><path
     style="fill:#34abe0;stroke-width:0.8621738"
     d="m 221.49065,234.60809 c -1.61572,0 -3.22798,-0.64233 -4.42037,-1.91403 -2.28993,-2.44081 -2.1675,-6.27489 0.27331,-8.56569 0.27849,-0.26124 28.13963,-26.53427 55.9456,-63.72931 2.00368,-2.6805 5.80157,-3.2297 8.48293,-1.22514 2.68049,2.00368 3.22884,5.80156 1.22514,8.48291 -28.47845,38.09258 -56.19562,64.21816 -57.36214,65.3114 -1.17083,1.09583 -2.65895,1.63986 -4.14447,1.63986 z"
     id="path24"
     inkscape:connector-curvature="0" /><path
     style="fill:#f9f9f9;stroke-width:0.8621738"
     d="m 275.09631,243.34881 c -1.64503,0 -3.28488,-0.6656 -4.47986,-1.97782 -2.25372,-2.47358 -2.07784,-6.30594 0.3966,-8.5614 28.21033,-25.71433 84.0654,-71.36126 141.18269,-88.17193 3.20988,-0.94408 6.57925,0.89148 7.52419,4.10223 0.94495,3.21073 -0.89149,6.57924 -4.10222,7.52419 -54.78597,16.12438 -108.99946,60.49098 -136.43987,85.50264 -1.16308,1.05961 -2.62446,1.58209 -4.08153,1.58209 z"
     id="path26"
     inkscape:connector-curvature="0" /><g
     id="g32"
     transform="matrix(0.86217384,0,0,0.86217384,35.283516,32.215367)"><path
       style="fill:#9178b7;fill-opacity:1"
       d="m 290.023,308.794 c -2.069,0 -4.119,-0.909 -5.507,-2.655 -2.416,-3.039 -1.91,-7.461 1.128,-9.875 2.334,-1.855 58.024,-45.266 133.17,-30.816 3.812,0.732 6.308,4.417 5.575,8.229 -0.732,3.813 -4.415,6.314 -8.229,5.575 -68.879,-13.246 -121.248,27.602 -121.769,28.017 -1.292,1.025 -2.835,1.525 -4.368,1.525 z"
       id="path28"
       inkscape:connector-curvature="0" /><path
       style="fill:#9178b7;fill-opacity:1"
       d="m 194.779,177.404 c -1.061,0 -2.137,-0.24 -3.148,-0.749 -3.469,-1.742 -4.869,-5.966 -3.126,-9.435 11.361,-22.624 23.205,-58.429 15.111,-100.516 -0.734,-3.812 1.763,-7.496 5.575,-8.229 3.811,-0.734 7.496,1.763 8.229,5.575 8.84,45.966 -4.013,84.906 -16.353,109.479 -1.234,2.456 -3.713,3.875 -6.288,3.875 z"
       id="path30"
       inkscape:connector-curvature="0" /></g><path
     style="fill:#f9f9f9;stroke-width:0.8621738"
     d="m 282.19114,351.70423 -99.61988,49.64742 -57.9993,28.91818 C 95.167528,408.4413 71.374975,379.46881 55.771353,345.91991 l 9.59427,-19.25148 45.683997,-91.6646 18.10738,-36.33287 z"
     id="path34"
     inkscape:connector-curvature="0" /><g
     id="g42"
     transform="matrix(0.86217384,0,0,0.86217384,35.283516,32.215367)"><path
       style="fill:#9178b7;fill-opacity:1"
       d="M 76.667,438.689 C 54.839,417.258 36.825,391.94 23.764,363.864 v -0.01 l 11.139,-22.329 z"
       id="path38"
       inkscape:connector-curvature="0" /><polygon
       style="fill:#9178b7;fill-opacity:1"
       points="170.839,428.138 152.074,384.51 87.885,235.211 108.888,193.068 237.301,321.481 286.379,370.559 "
       id="polygon40" /></g><path
     style="fill:#f9f9f9;stroke-width:0.8621738"
     d="M 268.15494,353.91226 126.94639,212.70371 c -6.84393,-6.84395 -6.84393,-17.93926 0,-24.78319 v 0 c 6.84394,-6.84394 17.93925,-6.84394 24.78318,0 l 141.2077,141.20769 c 6.84394,6.84393 6.84394,17.93925 0,24.78318 v 0 c -6.84308,6.84394 -17.93925,6.84394 -24.78233,8.7e-4 z"
     id="path46"
     inkscape:connector-curvature="0" /><circle
     style="fill:#f9f9f9;stroke-width:0.8621738"
     cx="176.15497"
     cy="142.5831"
     r="6.0602198"
     id="circle50" /><circle
     style="fill:#9178b7;fill-opacity:1;stroke-width:0.8621738"
     cx="257.1355"
     cy="119.44839"
     r="6.0602198"
     id="circle52" /><circle
     style="fill:#34abe0;stroke-width:0.8621738"
     cx="356.29495"
     cy="137.62819"
     r="6.0602198"
     id="circle54" /><g
     id="g60"
     transform="matrix(0.86217384,0,0,0.86217384,35.283516,32.215367)"><circle
       style="fill:#f9f9f9"
       cx="372.328"
       cy="323.53201"
       r="7.0289998"
       id="circle56" /><path
       style="fill:#f9f9f9"
       d="m 254.9,10.029 8.735,7.769 c 0.739,0.657 1.753,0.909 2.714,0.673 L 277.7,15.68 c 2.418,-0.595 4.468,1.841 3.469,4.122 l -4.69,10.708 c -0.397,0.906 -0.322,1.949 0.199,2.789 l 6.163,9.934 c 1.312,2.116 -0.371,4.818 -2.848,4.574 L 268.36,46.656 c -0.984,-0.097 -1.953,0.296 -2.59,1.051 l -7.543,8.931 c -1.607,1.902 -4.697,1.136 -5.23,-1.296 l -2.5,-11.42 c -0.211,-0.965 -0.885,-1.766 -1.8,-2.139 l -10.824,-4.415 c -2.305,-0.94 -2.532,-4.116 -0.383,-5.374 l 10.088,-5.907 c 0.854,-0.499 1.406,-1.387 1.479,-2.373 l 0.854,-11.659 c 0.178,-2.483 3.128,-3.681 4.989,-2.026 z"
       id="path58"
       inkscape:connector-curvature="0" /></g><path
     style="fill:#9178b7;fill-opacity:1;stroke-width:0.8621738"
     d="m 454.29051,92.257154 5.2722,11.110836 c 0.44574,0.93977 1.32516,1.60019 2.35201,1.76486 l 12.14113,1.95542 c 2.58566,0.41643 3.57199,3.61768 1.66831,5.41703 l -8.93729,8.44672 c -0.75613,0.71474 -1.11134,1.75453 -0.95184,2.7831 l 1.89161,12.15148 c 0.40263,2.58824 -2.3365,4.51434 -4.63592,3.25987 l -10.79527,-5.89036 c -0.91391,-0.49834 -2.01232,-0.51559 -2.94088,-0.0448 l -10.97202,5.55411 c -2.33649,1.18291 -5.01613,-0.82682 -4.53331,-3.40213 l 2.26579,-12.08682 c 0.19226,-1.02253 -0.13278,-2.07352 -0.86562,-2.81069 l -8.67261,-8.71916 c -1.84677,-1.85712 -0.76303,-5.02561 1.83384,-5.36272 l 12.19545,-1.58036 c 1.03117,-0.13364 1.93127,-0.76648 2.40633,-1.69159 l 5.61276,-10.941845 c 1.19323,-2.331318 4.54279,-2.278727 5.66533,0.08708 z"
     id="path62"
     inkscape:connector-curvature="0" /><g
     id="g64"
     transform="matrix(0.86217384,0,0,0.86217384,35.283516,32.215367)" /><g
     id="g66"
     transform="matrix(0.86217384,0,0,0.86217384,35.283516,32.215367)" /><g
     id="g68"
     transform="matrix(0.86217384,0,0,0.86217384,35.283516,32.215367)" /><g
     id="g70"
     transform="matrix(0.86217384,0,0,0.86217384,35.283516,32.215367)" /><g
     id="g72"
     transform="matrix(0.86217384,0,0,0.86217384,35.283516,32.215367)" /><g
     id="g74"
     transform="matrix(0.86217384,0,0,0.86217384,35.283516,32.215367)" /><g
     id="g76"
     transform="matrix(0.86217384,0,0,0.86217384,35.283516,32.215367)" /><g
     id="g78"
     transform="matrix(0.86217384,0,0,0.86217384,35.283516,32.215367)" /><g
     id="g80"
     transform="matrix(0.86217384,0,0,0.86217384,35.283516,32.215367)" /><g
     id="g82"
     transform="matrix(0.86217384,0,0,0.86217384,35.283516,32.215367)" /><g
     id="g84"
     transform="matrix(0.86217384,0,0,0.86217384,35.283516,32.215367)" /><g
     id="g86"
     transform="matrix(0.86217384,0,0,0.86217384,35.283516,32.215367)" /><g
     id="g88"
     transform="matrix(0.86217384,0,0,0.86217384,35.283516,32.215367)" /><g
     id="g90"
     transform="matrix(0.86217384,0,0,0.86217384,35.283516,32.215367)" /><g
     id="g92"
     transform="matrix(0.86217384,0,0,0.86217384,35.283516,32.215367)" /></svg>