<?xml version="1.0" encoding="UTF-8" standalone="no"?>
<svg
   xmlns:dc="http://purl.org/dc/elements/1.1/"
   xmlns:cc="http://creativecommons.org/ns#"
   xmlns:rdf="http://www.w3.org/1999/02/22-rdf-syntax-ns#"
   xmlns:svg="http://www.w3.org/2000/svg"
   xmlns="http://www.w3.org/2000/svg"
   xmlns:sodipodi="http://sodipodi.sourceforge.net/DTD/sodipodi-0.dtd"
   xmlns:inkscape="http://www.inkscape.org/namespaces/inkscape"
   height="512pt"
   viewBox="0 0 512 512"
   width="512pt"
   version="1.1"
   id="svg6"
   sodipodi:docname="help.svg"
   inkscape:version="0.92.0 r15299">
  <metadata
     id="metadata12">
    <rdf:RDF>
      <cc:Work
         rdf:about="">
        <dc:format>image/svg+xml</dc:format>
        <dc:type
           rdf:resource="http://purl.org/dc/dcmitype/StillImage" />
      </cc:Work>
    </rdf:RDF>
  </metadata>
  <defs
     id="defs10" />
  <sodipodi:namedview
     pagecolor="#ffffff"
     bordercolor="#666666"
     borderopacity="1"
     objecttolerance="10"
     gridtolerance="10"
     guidetolerance="10"
     inkscape:pageopacity="0"
     inkscape:pageshadow="2"
     inkscape:window-width="2560"
     inkscape:window-height="1017"
     id="namedview8"
     showgrid="false"
     inkscape:zoom="0.69140625"
     inkscape:cx="132.67442"
     inkscape:cy="151.29307"
     inkscape:window-x="1912"
     inkscape:window-y="-8"
     inkscape:window-maximized="1"
     inkscape:current-layer="svg6" />
  <path
     d="m 494.10169,605.28813 h -320 c -53.02344,0 -95.999997,-42.97656 -95.999997,-96 v -320 c 0,-53.02344 42.976557,-95.999997 95.999997,-95.999997 h 320 c 53.02344,0 96,42.976557 96,95.999997 v 320 c 0,53.02344 -42.97656,96 -96,96 z m 0,0"
     id="path2"
     style="fill:#ded1f2;fill-opacity:1"
     inkscape:connector-curvature="0" />
  <path
     d="m 334.10169,221.28813 c -70.57422,0 -128,57.42578 -128,128 0,70.57422 57.42578,128 128,128 70.57422,0 128,-57.42578 128,-128 0,-70.57422 -57.42578,-128 -128,-128 z m 56,138.67188 h -45.32812 v 45.32812 c 0,5.88672 -4.78516,10.67188 -10.67188,10.67188 -5.88672,0 -10.67187,-4.78516 -10.67187,-10.67188 v -45.32812 h -45.32813 c -5.88672,0 -10.67187,-4.78516 -10.67187,-10.67188 0,-5.88672 4.78515,-10.67187 10.67187,-10.67187 h 45.32813 v -45.32813 c 0,-5.88672 4.78515,-10.67187 10.67187,-10.67187 5.88672,0 10.67188,4.78515 10.67188,10.67187 v 45.32813 h 45.32812 c 5.88672,0 10.67188,4.78515 10.67188,10.67187 0,5.88672 -4.78516,10.67188 -10.67188,10.67188 z m 0,0"
     id="path4"
     style="fill:#9178b7;fill-opacity:1"
     inkscape:connector-curvature="0" />
  <rect
     style="opacity:0.5;fill:#ffffff;fill-opacity:0.78431373;fill-rule:evenodd;stroke:none;stroke-width:4.51278925;stroke-linecap:round;stroke-linejoin:round;stroke-miterlimit:4;stroke-dasharray:none;stroke-dashoffset:0;stroke-opacity:1;paint-order:stroke fill markers"
     id="rect4504"
     width="614.39001"
     height="545.42297"
     x="38.296513"
     y="74.407166" />
</svg>
