<?xml version="1.0" encoding="UTF-8" standalone="no"?>
<!-- Generator: Adobe Illustrator 19.0.0, SVG Export Plug-In . SVG Version: 6.00 Build 0)  -->

<svg
   xmlns:dc="http://purl.org/dc/elements/1.1/"
   xmlns:cc="http://creativecommons.org/ns#"
   xmlns:rdf="http://www.w3.org/1999/02/22-rdf-syntax-ns#"
   xmlns:svg="http://www.w3.org/2000/svg"
   xmlns="http://www.w3.org/2000/svg"
   xmlns:sodipodi="http://sodipodi.sourceforge.net/DTD/sodipodi-0.dtd"
   xmlns:inkscape="http://www.inkscape.org/namespaces/inkscape"
   version="1.1"
   id="Layer_1"
   x="0px"
   y="0px"
   viewBox="0 0 505 505"
   style="enable-background:new 0 0 505 505;"
   xml:space="preserve"
   sodipodi:docname="update.svg"
   inkscape:version="0.92.0 r15299"><metadata
     id="metadata43"><rdf:RDF><cc:Work
         rdf:about=""><dc:format>image/svg+xml</dc:format><dc:type
           rdf:resource="http://purl.org/dc/dcmitype/StillImage" /></cc:Work></rdf:RDF></metadata><defs
     id="defs41" /><sodipodi:namedview
     pagecolor="#ffffff"
     bordercolor="#666666"
     borderopacity="1"
     objecttolerance="10"
     gridtolerance="10"
     guidetolerance="10"
     inkscape:pageopacity="0"
     inkscape:pageshadow="2"
     inkscape:window-width="2560"
     inkscape:window-height="1017"
     id="namedview39"
     showgrid="false"
     inkscape:zoom="0.6608998"
     inkscape:cx="-41.965565"
     inkscape:cy="289.29436"
     inkscape:window-x="1912"
     inkscape:window-y="-8"
     inkscape:window-maximized="1"
     inkscape:current-layer="Layer_1" /><path
     style="fill:#ded1f2;fill-opacity:1;stroke-width:1.194754"
     d="m 54.471192,356.14658 c 0,-166.66819 135.007198,-301.675388 301.675388,-301.675388 166.5487,0 301.67538,135.007198 301.67538,301.675388 0,166.66817 -135.12668,301.67538 -301.67538,301.67538 -166.66819,0 -301.675388,-135.00721 -301.675388,-301.67538 z"
     id="path2"
     inkscape:connector-curvature="0" /><path
     style="fill:#9178b7;fill-opacity:1;stroke-width:1.194754"
     d="m 287.44822,389.59968 h 18.51868 c 14.33706,0 22.46138,-16.36813 13.85915,-27.83776 l -72.64104,-95.81927 c -6.92957,-9.19961 -20.78872,-9.19961 -27.71829,0 l -72.64105,95.81927 c -8.7217,11.46963 -0.4779,27.83776 13.85915,27.83776 h 16.72655 c 26.04564,120.07278 140.50308,170.25245 226.16694,142.7731 7.52694,-2.3895 6.09324,-13.50072 -1.91161,-14.09809 -78.97324,-5.73482 -122.58176,-74.55265 -114.21848,-128.67501 z"
     id="path4"
     inkscape:connector-curvature="0" /><path
     style="fill:#9178b7;fill-opacity:1;stroke-width:1.194754"
     d="m 424.84493,322.69346 h -18.51869 c -14.33705,0 -22.46137,16.36813 -13.85914,27.83777 l 72.64104,95.93875 c 6.92957,9.19961 20.78871,9.19961 27.71829,0 l 72.64104,-95.93875 c 8.7217,-11.46964 0.4779,-27.83777 -13.85914,-27.83777 H 534.88177 C 508.71666,202.62069 394.25922,152.44102 308.59536,179.92036 c -7.52695,2.38951 -6.09324,13.50072 1.91161,14.0981 79.09271,5.73482 122.70123,74.55265 114.33796,128.675 z"
     id="path6"
     inkscape:connector-curvature="0" /><g
     id="g8"
     transform="scale(1.3026177)" /><g
     id="g10"
     transform="scale(1.3026177)" /><g
     id="g12"
     transform="scale(1.3026177)" /><g
     id="g14"
     transform="scale(1.3026177)" /><g
     id="g16"
     transform="scale(1.3026177)" /><g
     id="g18"
     transform="scale(1.3026177)" /><g
     id="g20"
     transform="scale(1.3026177)" /><g
     id="g22"
     transform="scale(1.3026177)" /><g
     id="g24"
     transform="scale(1.3026177)" /><g
     id="g26"
     transform="scale(1.3026177)" /><g
     id="g28"
     transform="scale(1.3026177)" /><g
     id="g30"
     transform="scale(1.3026177)" /><g
     id="g32"
     transform="scale(1.3026177)" /><g
     id="g34"
     transform="scale(1.3026177)" /><g
     id="g36"
     transform="scale(1.3026177)" /><rect
     style="opacity:0.5;fill:#ffffff;fill-opacity:0.78431373;fill-rule:evenodd;stroke:none;stroke-width:5.62767839;stroke-linecap:round;stroke-linejoin:round;stroke-miterlimit:4;stroke-dasharray:none;stroke-dashoffset:0;stroke-opacity:1;paint-order:stroke fill markers"
     id="rect4504"
     width="768.56519"
     height="678.05548"
     x="-71.073227"
     y="-6.5198488" /></svg>