<svg xmlns="http://www.w3.org/2000/svg" viewBox="0 0 390 292.5">
    <g data-name="Layer 2">
        <path d="M387.71 108.28a72.25 72.25 0 00-11.85 13.91c-12.52 19.36-11.87 43.47-10.12 65.5 1 12.28-16.39 25.18-21.5 25.88-9.86 1.35-19.64 1.23-28.89 5.3-1.58.7-4.73 2.8-5.84 3.18a3.81 3.81 0 00-.88.37c-18 10.78-29.33 29.63-32.45 50.87-.15 1-1 11.21-1.07 19.21H390V106.59c-1.12.82-2.14 1.55-2.29 1.69zm-16.14-30.71c8-35.08-39.84-44.81-41.87-76.49q0-.56-.06-1.08H293.5c3.14 7.32 6.34 14.62 9.3 22 1.48 3.72 3 7.74 4.37 11.93l.22.68c8.34 25.6 12 57.31-20.38 66.17-27.48 7.51-56.28-9.65-84.33-7.73-24.6 1.68-44.54 11.24-59.33 30.78 0 0-3.73 6.6-3.68 6.73-6.32 14.27-19.77 45.81-21.08 60.11-2 22.26-2.49 47.9-21.15 63.47-9 7.52-20.22 8.33-31.37 9.57-19.07 2.18-32.32 15.43-44.78 28.79h28.88c1.49-2.73 3-5.09 4.45-6 8.42-5.31 20.27-5.3 29.69-8.14a70.15 70.15 0 0028.32-15.91c13.25-12.53 23.29-30 41.48-36 31.59-10.52 66.71 15 70.54 46.78a82.47 82.47 0 010 19.3h24.23c-2.6-5.72-4.22-13.2-6-18.31-2.69-7.55-5.16-15.19-7.14-23-3.74-14.66-5.78-29.87-4.55-45a91.46 91.46 0 0138.23-67.85c20.21-14.46 41.44-22.31 65-28.84 23.93-6.66 36.32-28.33 37.15-31.96zM25.35 234.87v-.14c7.45-.9 12-1.86 21.44-4.87 19.56-8 20.56-18 23.8-25.69a65.37 65.37 0 00.62-17.37c-1.77-25-17.66-58.7.58-80.2 6.56-7.73 17.84-14.19 21.56-15.73 2.65-1.1 25-3 39-12-.1.16 22.55-14.57 29.91-28.13 6.69-12.3 7.8-26.64 7-40.17-.06-1-.46-5.43-1-10.57h-58.4c-2.71 8.49-7.09 16.27-14.38 21.63-23.11 17-55.09 2.37-78.63 18.21A39.4 39.4 0 00.07 68.12c0 .21 0 .42-.07.62v11.59c.25 2.72.65 5.44 1.13 8.12 1.76 9.73 6.26 18.46 6 28.55a66 66 0 01-1.57 12.87.59.59 0 000 .19A47 47 0 010 143.91v92.64c7.52-.44 15.86-.75 24.14-1.68z" data-name="Layer 1"/>
    </g>
</svg>
