<svg xmlns="http://www.w3.org/2000/svg" viewBox="0 0 471.896 226.72">
    <path d="M92.842 5.509L83.962 0h17.763zm48.336 221.211h17.761l-8.88-5.508zM216.147 0h-17.764l8.882 5.509zM26.756 226.72h17.762l-8.88-5.508zM330.556 0h-17.763l8.88 5.509zm105.542 25.502L394.984 0h-32.191l-41.117 25.502L280.562 0h-32.19l-19.54 12.12v.007l-21.565 13.375L166.153 0h-32.191L92.844 25.502 51.731 0h-32.19L0 12.12v26.246l35.636-22.104 57.206 35.486 57.215-35.486 57.208 35.486 35.8-22.204v-.006l21.402-13.276 57.207 35.486 57.214-35.486 57.208 35.486 35.8-22.204V3.299zM444.978 0h-17.763l8.881 5.509zM378.89 36.256L321.676 71.74l-57.208-35.486L228.83 58.36v.007L207.267 71.74l-57.21-35.485L92.845 71.74 35.636 36.255 0 58.36v26.246l35.636-22.104 57.206 35.486 57.215-35.486 57.208 35.486 35.8-22.204v-.006L264.466 62.5l57.207 35.486L378.887 62.5l57.208 35.486 35.8-22.204V49.538L436.098 71.74zm-8.88 190.464h17.762l-8.88-5.508zm8.881-51.747l-57.213 35.486-57.209-35.486-35.637 22.104v.006l-21.564 13.375-57.208-35.485-57.214 35.486-57.208-35.486L0 197.077v26.245l35.637-22.104 41.111 25.502h32.191l41.118-25.502 41.113 25.502h32.192l19.702-12.22v-.006l21.404-13.276 41.112 25.502h32.19l41.118-25.502 41.114 25.502h32.192l19.702-12.22v-26.244l-35.798 22.202zM255.587 226.72h17.763l-8.881-5.508zM378.891 82.495l-57.214 35.485-57.208-35.485-35.638 22.104v.006l-21.564 13.375-57.207-35.485-57.215 35.485-57.207-35.485L0 104.599v26.246l35.637-22.104 57.206 35.485 57.214-35.486 57.209 35.486 35.798-22.204v-.006l21.404-13.276 57.206 35.486 57.214-35.486 57.21 35.486 35.798-22.204V95.778l-35.798 22.202zm0 46.239l-57.214 35.485-57.209-35.486-35.637 22.105v.006l-21.564 13.375-57.207-35.485-57.215 35.485-57.208-35.486L0 150.838v26.246l35.637-22.105 57.206 35.486 57.215-35.486 57.207 35.486 35.8-22.204v-.005l21.403-13.276 57.206 35.485 57.215-35.486 57.207 35.486 35.8-22.204v-26.245l-35.798 22.203z"/>
</svg>
