<svg xmlns="http://www.w3.org/2000/svg" viewBox="0 0 390 202.34">
    <path d="M252.26 163.803c.61 6.777-.554 20.663-6.704 25.238-8.776 6.53-23.36 6.965-33.549 4.591a23.983 23.983 0 01-9.757-4.312 12.068 12.068 0 01-4.77-9.236c.058-3.95 2.542-7.445 5.28-10.293 2.74-2.848 5.883-5.404 7.852-8.829 1.97-3.425 2.459-8.123-.137-11.1-3.745-4.296-10.854-2.473-16.066-4.776a10.492 10.492 0 118.8-19.047c8.005 3.861 8.752 16.172 16.672 20.205 6.332 3.223 14.218-.404 21.03 1.613 6.646 1.967 10.727 9.043 11.35 15.946zm-51.674-122.98c5.255-.48 9.177-5.496 10.174-10.678s-.262-10.502-1.515-15.628c-.925-3.785-1.917-7.708-4.383-10.725s-6.86-4.837-10.367-3.141c-3.725 1.801-4.86 6.447-5.783 10.48-.923 4.034-2.671 8.67-6.682 9.69-3.45.877-6.812-1.396-9.837-3.274s-7.081-3.42-9.951-1.312c-2.676 1.967-2.658 6.038-1.487 9.145 1.172 3.108 3.212 5.91 3.794 9.18.917 5.153-2.05 10.306-5.95 13.795-3.901 3.49-8.705 5.775-13.038 8.71-4.333 2.934-8.408 6.86-9.589 11.958-1.37 5.913 2.686 10.298 6.461 14.233 3.02 3.147 10.8 6.85 11.48-.598.321-3.527-2.901-7.448-.745-10.258 1.585-2.064 4.756-1.589 7.293-1.007 2.537.581 5.837.742 7.074-1.548 1.923-3.562-3.72-8.298-1.258-11.51 1.197-1.563 3.564-1.488 5.473-1.012 1.91.476 3.958 1.197 5.775.441 2.828-1.175 3.214-5.028 2.685-8.044-.53-3.017-1.464-6.364.17-8.954 1.917-3.037 6.308-3.249 9.774-2.309 3.466.94 6.855 2.692 10.432 2.366zm-99.442 86.372a6.477 6.477 0 00-2.764 3.221 4.753 4.753 0 00-.318 3.488 3.735 3.735 0 004.394 2.053 5.318 5.318 0 003.51-3.687c.388-1.302.717-3.805-.354-4.904-1.035-1.06-3.314-.784-4.468-.171zm178.84-19.569a6.476 6.476 0 00-2.764 3.222 4.753 4.753 0 00-.318 3.488 3.735 3.735 0 004.394 2.053 5.32 5.32 0 003.51-3.688c.388-1.301.717-3.804-.354-4.903-1.035-1.061-3.314-.785-4.468-.172zm-39.163-24.795c1.358.007 3.853-.379 4.608-1.715.728-1.29-.176-3.4-1.088-4.336a6.479 6.479 0 00-3.867-1.751 4.753 4.753 0 00-3.437.673 3.735 3.735 0 00-.74 4.792 5.319 5.319 0 004.524 2.337zm-107.234 43.847a2.676 2.676 0 00-2.23-4.2 3.428 3.428 0 00-2.588 1.327 2.747 2.747 0 00-.133 3.45c1.1 1.189 3.986.65 4.951-.577zm116.423-5.468a3.428 3.428 0 00-2.589 1.328 2.747 2.747 0 00-.133 3.45c1.1 1.189 3.986.65 4.952-.577a2.676 2.676 0 00-2.23-4.201zM94.91 90.406a2.605 2.605 0 002.959-.133c2.107-1.752-.421-4.09-2.437-4.008-2.445.099-2.3 3.042-.521 4.141zm2.797-22.097c.74-2.638-2.668-3.127-4.282-1.916-1.956 1.47-.165 3.81 1.923 3.706a2.605 2.605 0 002.36-1.79zm209.807 111.187c-2.444.099-2.3 3.042-.521 4.142a2.605 2.605 0 002.958-.134c2.107-1.752-.42-4.09-2.437-4.008zm-145.565-14.238c-4.211-.575-8.477.278-12.727.283-4.25.006-8.898-1.09-11.423-4.508-4.574-6.189.21-16.175-4.667-22.129-4.485-5.476-13.438-3.199-19.238.86s-11.363 9.67-18.442 9.737a12.875 12.875 0 01-11.673-18.557c2.602-5.29 8.34-8.088 13.271-11.32s9.795-8.322 8.878-14.146c-1.124-7.13-10.1-10.09-17.253-9.114-7.152.976-14.041 4.334-21.236 3.758-9.374-.75-17.543-9.083-18.107-18.47-.565-9.385 6.546-18.637 15.762-20.506 9.243-1.874 19.34 2.912 28.028-.757 7.586-3.204 11.473-12.475 9.95-20.567-1.525-8.092-7.546-14.816-14.711-18.873-7.166-4.057-15.408-5.774-23.57-6.872-9.703-1.305-19.649-1.806-29.227.227-9.579 2.033-18.826 6.806-24.83 14.54-7.538 9.709-9.13 22.657-9.905 34.923a417.125 417.125 0 002.167 76.187c1.732 14.355 4.5 29.298 13.481 40.63 7.795 9.836 19.594 15.897 31.79 18.855s24.89 3.069 37.437 2.809q22.629-.47 45.19-2.476 11.273-1.003 22.507-2.388 5.81-.717 11.606-1.535c2.702-.382 7.343-.153 9.696-1.63 5.269-3.309 3.993-13.817 1.722-18.481a19.29 19.29 0 00-14.476-10.48zm215.57 13.11c-1.217 4.035-2.596 8.178-5.432 11.296-9.826 10.799-23.808 3.089-34.44-1.341-9.573-3.99-22.294-4.586-28.032-14.427a20.272 20.272 0 01.03-20.128c2.128-3.578 5.337-6.404 7.58-9.913 2.243-3.509 3.371-8.303 1.017-11.738-2.626-3.831-8.045-4.134-12.688-4.281-4.642-.148-10.177-1.127-12.003-5.398-2.65-6.193 5.052-12.601 4.064-19.264-.84-5.664-7.952-8.554-13.463-7.001s-9.604 6.082-13.21 10.529c-3.605 4.447-7.264 9.201-12.488 11.543-9.009 4.039-20.982-1.732-23.435-11.294-2.454-9.563 5.262-20.385 15.102-21.183 3.595-.291 7.18.563 10.786.663 3.605.101 7.57-.76 9.762-3.625 3.216-4.203.807-10.763-3.611-13.677-4.419-2.914-10.039-3.13-15.331-3.04-5.292.091-10.807.352-15.632-1.821-8.958-4.035-12.537-15.956-9.132-25.171s12.273-15.595 21.718-18.3c9.445-2.703 19.486-2.24 29.266-1.301 9.78.939 19.607 2.333 29.389 1.419 11.111-1.039 21.73-5.017 32.718-6.961 10.99-1.945 23.211-1.549 32.106 5.19 10.017 7.589 13.245 21.054 14.995 33.497a294.936 294.936 0 01-9.637 125.727zM304.795 52.896a9.33 9.33 0 10-9.329 9.374 9.351 9.351 0 009.33-9.374z"/>
</svg>
